{
  "accessors": [
    {
      "bufferView": 2,
      "componentType": 5126,
      "count": 65532,
      "max": [
        2174.40234375,
        1875.139892578125,
        69.95172119140625
      ],
      "min": [
        -1864.7891845703125,
        -2296.060546875,
        -77.47399139404297
      ],
      "type": "VEC3"
    },
    {
      "bufferView": 2,
      "byteOffset": 786384,
      "componentType": 5126,
      "count": 65532,
      "max": [
        0.9995617866516113,
        0.9998796582221985,
        1.0
      ],
      "min": [
        -0.9999615550041199,
        -0.999919056892395,
        -0.9964665174484253
      ],
      "type": "VEC3"
    },
    {
      "bufferView": 1,
      "componentType": 5126,
      "count": 65532,
      "max": [
        0.9991833567619324,
        0.9992508888244629
      ],
      "min": [
        0.06978254020214081,
        0.0007231549825519323
      ],
      "type": "VEC2"
    },
    {
      "bufferView": 0,
      "componentType": 5125,
      "count": 332637,
      "type": "SCALAR"
    },
    {
      "bufferView": 2,
      "byteOffset": 1572768,
      "componentType": 5126,
      "count": 65532,
      "max": [
        2233.40625,
        1881.087890625,
        65.84577941894531
      ],
      "min": [
        -1836.3555908203125,
        -2234.982666015625,
        -70.51486206054688
      ],
      "type": "VEC3"
    },
    {
      "bufferView": 2,
      "byteOffset": 2359152,
      "componentType": 5126,
      "count": 65532,
      "max": [
        0.9993069767951965,
        0.9986855387687683,
        0.9999999403953552
      ],
      "min": [
        -0.9997641444206238,
        -0.9998503923416138,
        -0.9736345410346985
      ],
      "type": "VEC3"
    },
    {
      "bufferView": 1,
      "byteOffset": 524256,
      "componentType": 5126,
      "count": 65532,
      "max": [
        0.9990983009338379,
        0.9992656111717224
      ],
      "min": [
        0.0007231500931084156,
        0.0026266612112522125
      ],
      "type": "VEC2"
    },
    {
      "bufferView": 0,
      "byteOffset": 1330548,
      "componentType": 5125,
      "count": 319848,
      "type": "SCALAR"
    },
    {
      "bufferView": 2,
      "byteOffset": 3145536,
      "componentType": 5126,
      "count": 65532,
      "max": [
        2586.8046875,
        1867.71923828125,
        63.03397750854492
      ],
      "min": [
        -1881.7061767578125,
        -2287.603515625,
        -71.84761810302734
      ],
      "type": "VEC3"
    },
    {
      "bufferView": 2,
      "byteOffset": 3931920,
      "componentType": 5126,
      "count": 65532,
      "max": [
        0.9999626278877258,
        0.9997637867927551,
        0.9999999403953552
      ],
      "min": [
        -0.9998738169670105,
        -0.999821126461029,
        -0.9984712600708008
      ],
      "type": "VEC3"
    },
    {
      "bufferView": 1,
      "byteOffset": 1048512,
      "componentType": 5126,
      "count": 65532,
      "max": [
        0.9992024898529053,
        0.9992764592170715
      ],
      "min": [
        0.0014998025726526976,
        0.021090006455779076
      ],
      "type": "VEC2"
    },
    {
      "bufferView": 0,
      "byteOffset": 2609940,
      "componentType": 5125,
      "count": 307224,
      "type": "SCALAR"
    },
    {
      "bufferView": 2,
      "byteOffset": 4718304,
      "componentType": 5126,
      "count": 65532,
      "max": [
        2596.00537109375,
        1833.333984375,
        60.34476852416992
      ],
      "min": [
        -1880.9107666015625,
        -2262.5478515625,
        -70.9715805053711
      ],
      "type": "VEC3"
    },
    {
      "bufferView": 2,
      "byteOffset": 5504688,
      "componentType": 5126,
      "count": 65532,
      "max": [
        0.9998351335525513,
        0.9997221231460571,
        1.0
      ],
      "min": [
        -0.9997668266296387,
        -0.9998495578765869,
        -0.9889574646949768
      ],
      "type": "VEC3"
    },
    {
      "bufferView": 1,
      "byteOffset": 1572768,
      "componentType": 5126,
      "count": 65532,
      "max": [
        0.9992736577987671,
        0.9992531538009644
      ],
      "min": [
        0.0007231549825519323,
        0.0059714470990002155
      ],
      "type": "VEC2"
    },
    {
      "bufferView": 0,
      "byteOffset": 3838836,
      "componentType": 5125,
      "count": 280899,
      "type": "SCALAR"
    },
    {
      "bufferView": 2,
      "byteOffset": 6291072,
      "componentType": 5126,
      "count": 65532,
      "max": [
        2603.5537109375,
        1907.1182861328125,
        60.36177444458008
      ],
      "min": [
        -1874.808837890625,
        -2286.496337890625,
        -74.78900146484375
      ],
      "type": "VEC3"
    },
    {
      "bufferView": 2,
      "byteOffset": 7077456,
      "componentType": 5126,
      "count": 65532,
      "max": [
        0.9995058178901672,
        0.9991326332092285,
        1.0
      ],
      "min": [
        -0.9994198083877563,
        -0.9996883273124695,
        -0.9984712600708008
      ],
      "type": "VEC3"
    },
    {
      "bufferView": 1,
      "byteOffset": 2097024,
      "componentType": 5126,
      "count": 65532,
      "max": [
        0.9991384744644165,
        0.9989858269691467
      ],
      "min": [
        0.008858328685164452,
        0.0007231549825519323
      ],
      "type": "VEC2"
    },
    {
      "bufferView": 0,
      "byteOffset": 4962432,
      "componentType": 5125,
      "count": 306342,
      "type": "SCALAR"
    },
    {
      "bufferView": 2,
      "byteOffset": 7863840,
      "componentType": 5126,
      "count": 65532,
      "max": [
        2603.5537109375,
        1903.738525390625,
        60.140357971191406
      ],
      "min": [
        -1869.39453125,
        -2293.009765625,
        -78.22664642333984
      ],
      "type": "VEC3"
    },
    {
      "bufferView": 2,
      "byteOffset": 8650224,
      "componentType": 5126,
      "count": 65532,
      "max": [
        0.9999855160713196,
        0.9977412223815918,
        1.0
      ],
      "min": [
        -0.999949038028717,
        -0.9983431100845337,
        -0.9729937314987183
      ],
      "type": "VEC3"
    },
    {
      "bufferView": 1,
      "byteOffset": 2621280,
      "componentType": 5126,
      "count": 65532,
      "max": [
        0.9991879463195801,
        0.9992764592170715
      ],
      "min": [
        0.0007231549825519323,
        0.0020874114707112312
      ],
      "type": "VEC2"
    },
    {
      "bufferView": 0,
      "byteOffset": 6187800,
      "componentType": 5125,
      "count": 313677,
      "type": "SCALAR"
    },
    {
      "bufferView": 2,
      "byteOffset": 9436608,
      "componentType": 5126,
      "count": 65532,
      "max": [
        2465.578369140625,
        1889.7264404296875,
        65.32836151123047
      ],
      "min": [
        -1718.583251953125,
        -2300.795166015625,
        -78.97035217285156
      ],
      "type": "VEC3"
    },
    {
      "bufferView": 2,
      "byteOffset": 10222992,
      "componentType": 5126,
      "count": 65532,
      "max": [
        0.9995940923690796,
        0.9998176097869873,
        1.0
      ],
      "min": [
        -0.9998506903648376,
        -0.9998384714126587,
        -0.9993242621421814
      ],
      "type": "VEC3"
    },
    {
      "bufferView": 1,
      "byteOffset": 3145536,
      "componentType": 5126,
      "count": 65532,
      "max": [
        0.9992743134498596,
        0.9992520809173584
      ],
      "min": [
        0.0038891099393367767,
        0.0007231549825519323
      ],
      "type": "VEC2"
    },
    {
      "bufferView": 0,
      "byteOffset": 7442508,
      "componentType": 5125,
      "count": 317667,
      "type": "SCALAR"
    },
    {
      "bufferView": 2,
      "byteOffset": 11009376,
      "componentType": 5126,
      "count": 65532,
      "max": [
        2485.00146484375,
        1893.175537109375,
        69.95172119140625
      ],
      "min": [
        -1657.5718994140625,
        -2298.9306640625,
        -78.89418029785156
      ],
      "type": "VEC3"
    },
    {
      "bufferView": 2,
      "byteOffset": 11795760,
      "componentType": 5126,
      "count": 65532,
      "max": [
        0.9998688697814941,
        0.9987083673477173,
        1.0
      ],
      "min": [
        -0.9990264177322388,
        -0.9998722672462463,
        -0.998865008354187
      ],
      "type": "VEC3"
    },
    {
      "bufferView": 1,
      "byteOffset": 3669792,
      "componentType": 5126,
      "count": 65532,
      "max": [
        0.9992382526397705,
        0.9991772174835205
      ],
      "min": [
        0.0007231549825519323,
        0.0007231549825519323
      ],
      "type": "VEC2"
    },
    {
      "bufferView": 0,
      "byteOffset": 8713176,
      "componentType": 5125,
      "count": 313794,
      "type": "SCALAR"
    },
    {
      "bufferView": 2,
      "byteOffset": 12582144,
      "componentType": 5126,
      "count": 65533,
      "max": [
        2577.18994140625,
        1892.948974609375,
        64.12816619873047
      ],
      "min": [
        -1726.7374267578125,
        -2300.74560546875,
        -74.27851104736328
      ],
      "type": "VEC3"
    },
    {
      "bufferView": 2,
      "byteOffset": 13368540,
      "componentType": 5126,
      "count": 65533,
      "max": [
        0.9999920725822449,
        0.9999783039093018,
        0.9999999403953552
      ],
      "min": [
        -0.9999924898147583,
        -0.9999378323554993,
        -0.9998945593833923
      ],
      "type": "VEC3"
    },
    {
      "bufferView": 1,
      "byteOffset": 4194048,
      "componentType": 5126,
      "count": 65533,
      "max": [
        0.9992756843566895,
        0.9992762207984924
      ],
      "min": [
        0.0007231549825519323,
        0.0007231549825519323
      ],
      "type": "VEC2"
    },
    {
      "bufferView": 0,
      "byteOffset": 9968352,
      "componentType": 5125,
      "count": 289683,
      "type": "SCALAR"
    },
    {
      "bufferView": 2,
      "byteOffset": 14154936,
      "componentType": 5126,
      "count": 51242,
      "max": [
        2592.682861328125,
        1905.7286376953125,
        65.0652847290039
      ],
      "min": [
        -1865.040771484375,
        -2296.89208984375,
        -72.85950469970703
      ],
      "type": "VEC3"
    },
    {
      "bufferView": 2,
      "byteOffset": 14769840,
      "componentType": 5126,
      "count": 51242,
      "max": [
        0.9999745488166809,
        0.9983821511268616,
        1.0
      ],
      "min": [
        -0.9999582171440125,
        -0.9997435808181763,
        -0.9996131062507629
      ],
      "type": "VEC3"
    },
    {
      "bufferView": 1,
      "byteOffset": 4718312,
      "componentType": 5126,
      "count": 51242,
      "max": [
        0.999276340007782,
        0.9992738962173462
      ],
      "min": [
        0.0007231500931084156,
        0.0007231549825519323
      ],
      "type": "VEC2"
    },
    {
      "bufferView": 0,
      "byteOffset": 11127084,
      "componentType": 5125,
      "count": 218226,
      "type": "SCALAR"
    }
  ],
  "asset": {
    "extras": {
      "author": "coaehd (https://sketchfab.com/coaehd)",
      "license": "CC-BY-NC-4.0 (http://creativecommons.org/licenses/by-nc/4.0/)",
      "source": "https://sketchfab.com/3d-models/eubank-landfill-2018-abcb133b0c0c431882557693c95dc409",
      "title": "Eubank Landfill 2018"
    },
    "generator": "Sketchfab-12.65.0",
    "version": "2.0"
  },
  "bufferViews": [
    {
      "buffer": 0,
      "byteLength": 11999988,
      "name": "floatBufferViews",
      "target": 34963
    },
    {
      "buffer": 0,
      "byteLength": 5128248,
      "byteOffset": 11999988,
      "byteStride": 8,
      "name": "floatBufferViews",
      "target": 34962
    },
    {
      "buffer": 0,
      "byteLength": 15384744,
      "byteOffset": 17128236,
      "byteStride": 12,
      "name": "floatBufferViews",
      "target": 34962
    }
  ],
  "buffers": [
    {
      "byteLength": 32512980,
      "uri": "scene.bin"
    }
  ],
  "images": [
    {
      "uri": "textures/texture_material_baseColor.jpeg"
    }
  ],
  "materials": [
    {
      "doubleSided": true,
      "name": "texture_material",
      "pbrMetallicRoughness": {
        "baseColorTexture": {
          "index": 0
        },
        "metallicFactor": 0.0,
        "roughnessFactor": 0.6
      }
    }
  ],
  "meshes": [
    {
      "name": "mesh_out_node_texture_material_0",
      "primitives": [
        {
          "attributes": {
            "NORMAL": 1,
            "POSITION": 0,
            "TEXCOORD_0": 2
          },
          "indices": 3,
          "material": 0,
          "mode": 4
        }
      ]
    },
    {
      "name": "mesh_out_node_texture_material_0",
      "primitives": [
        {
          "attributes": {
            "NORMAL": 5,
            "POSITION": 4,
            "TEXCOORD_0": 6
          },
          "indices": 7,
          "material": 0,
          "mode": 4
        }
      ]
    },
    {
      "name": "mesh_out_node_texture_material_0",
      "primitives": [
        {
          "attributes": {
            "NORMAL": 9,
            "POSITION": 8,
            "TEXCOORD_0": 10
          },
          "indices": 11,
          "material": 0,
          "mode": 4
        }
      ]
    },
    {
      "name": "mesh_out_node_texture_material_0",
      "primitives": [
        {
          "attributes": {
            "NORMAL": 13,
            "POSITION": 12,
            "TEXCOORD_0": 14
          },
          "indices": 15,
          "material": 0,
          "mode": 4
        }
      ]
    },
    {
      "name": "mesh_out_node_texture_material_0",
      "primitives": [
        {
          "attributes": {
            "NORMAL": 17,
            "POSITION": 16,
            "TEXCOORD_0": 18
          },
          "indices": 19,
          "material": 0,
          "mode": 4
        }
      ]
    },
    {
      "name": "mesh_out_node_texture_material_0",
      "primitives": [
        {
          "attributes": {
            "NORMAL": 21,
            "POSITION": 20,
            "TEXCOORD_0": 22
          },
          "indices": 23,
          "material": 0,
          "mode": 4
        }
      ]
    },
    {
      "name": "mesh_out_node_texture_material_0",
      "primitives": [
        {
          "attributes": {
            "NORMAL": 25,
            "POSITION": 24,
            "TEXCOORD_0": 26
          },
          "indices": 27,
          "material": 0,
          "mode": 4
        }
      ]
    },
    {
      "name": "mesh_out_node_texture_material_0",
      "primitives": [
        {
          "attributes": {
            "NORMAL": 29,
            "POSITION": 28,
            "TEXCOORD_0": 30
          },
          "indices": 31,
          "material": 0,
          "mode": 4
        }
      ]
    },
    {
      "name": "mesh_out_node_texture_material_0",
      "primitives": [
        {
          "attributes": {
            "NORMAL": 33,
            "POSITION": 32,
            "TEXCOORD_0": 34
          },
          "indices": 35,
          "material": 0,
          "mode": 4
        }
      ]
    },
    {
      "name": "mesh_out_node_texture_material_0",
      "primitives": [
        {
          "attributes": {
            "NORMAL": 37,
            "POSITION": 36,
            "TEXCOORD_0": 38
          },
          "indices": 39,
          "material": 0,
          "mode": 4
        }
      ]
    }
  ],
  "nodes": [
    {
      "children": [
        1
      ],
      "matrix": [
        0.0,
        -2.7918275424673194e-17,
        0.12573273479938507,
        0.0,
        -0.12573273479938507,
        0.0,
        0.0,
        0.0,
        0.0,
        -0.12573273479938507,
        -2.7918275424673194e-17,
        0.0,
        557.7639770507813,
        9.0186462402345,
        -557.7639770507813,
        1.0
      ],
      "name": "Sketchfab_model"
    },
    {
      "children": [
        2
      ],
      "matrix": [
        1.0,
        0.0,
        0.0,
        0.0,
        0.0,
        -1.0,
        0.0,
        0.0,
        0.0,
        0.0,
        -1.0,
        0.0,
        0.0,
        0.0,
        0.0,
        1.0
      ],
      "name": "2f69e057057f487faad159eceb829277.fbx"
    },
    {
      "children": [
        3
      ],
      "name": "RootNode"
    },
    {
      "children": [
        4,
        5,
        6,
        7,
        8,
        9,
        10,
        11,
        12,
        13
      ],
      "name": "mesh_out_node"
    },
    {
      "mesh": 0,
      "name": "mesh_out_node_texture_material_0"
    },
    {
      "mesh": 1,
      "name": "mesh_out_node_texture_material_0"
    },
    {
      "mesh": 2,
      "name": "mesh_out_node_texture_material_0"
    },
    {
      "mesh": 3,
      "name": "mesh_out_node_texture_material_0"
    },
    {
      "mesh": 4,
      "name": "mesh_out_node_texture_material_0"
    },
    {
      "mesh": 5,
      "name": "mesh_out_node_texture_material_0"
    },
    {
      "mesh": 6,
      "name": "mesh_out_node_texture_material_0"
    },
    {
      "mesh": 7,
      "name": "mesh_out_node_texture_material_0"
    },
    {
      "mesh": 8,
      "name": "mesh_out_node_texture_material_0"
    },
    {
      "mesh": 9,
      "name": "mesh_out_node_texture_material_0"
    }
  ],
  "samplers": [
    {
      "magFilter": 9729,
      "minFilter": 9987,
      "wrapS": 10497,
      "wrapT": 10497
    }
  ],
  "scene": 0,
  "scenes": [
    {
      "name": "Sketchfab_Scene",
      "nodes": [
        0
      ]
    }
  ],
  "textures": [
    {
      "sampler": 0,
      "source": 0
    }
  ]
}
